# AST/ASF file generated using VICON BodyLanguage
# -----------------------------------------------
:version 1.10
:name VICON
:units
  mass 1.0
  length 0.45
  angle deg
:documentation
   .ast/.asf automatically generated from VICON data using
   VICON BodyBuilder and BodyLanguage model FoxedUp or BRILLIANT.MOD
:root
   order TX TY TZ RX RY RZ
   axis XYZ
   position 0 0 0  
   orientation 0 0 0 
:bonedata
  begin
     id 1 
     name lhipjoint
     direction 0.610259 -0.730986 0.305356 
     length 2.50941 
     axis 0 0 0  XYZ
  end
  begin
     id 2 
     name lfemur
     direction 0.34202 -0.939693 0  
     length 7.48822  
     axis 0 0 20  XYZ
    dof rx ry rz
    limits (-160.0 20.0)
           (-70.0 70.0)
           (-60.0 70.0)
  end
  begin
     id 3 
     name ltibia
     direction 0.34202 -0.939693 0   
     length 7.60141   
     axis 0 0 20   XYZ
    dof rx
    limits (-10.0 170.0)
  end
  begin
     id 4 
     name lfoot
     direction 0.0673488 -0.185039 0.980421   
     length 2.04049   
     axis -90 7.62852e-016 20   XYZ
    dof rx rz
    limits (-45.0 90.0)
           (-70.0 20.0)
  end
  begin
     id 5 
     name ltoes
     direction 1.5356e-011 -4.21729e-011 1   
     length 1.02897   
     axis -90 7.62852e-016 20   XYZ
    dof rx
    limits (-90.0 20.0)
  end
  begin
     id 6 
     name rhipjoint
     direction -0.57612 -0.754205 0.315056   
     length 2.43216  
     axis 0 0 0  XYZ 
  end
  begin
     id 7 
     name rfemur
     direction -0.34202 -0.939693 0   
     length 7.42799   
     axis 0 0 -20   XYZ
    dof rx ry rz
    limits (-160.0 20.0)
           (-70.0 70.0)
           (-70.0 60.0)
  end
  begin
     id 8 
     name rtibia
     direction -0.34202 -0.939693 0   
     length 7.69484   
     axis 0 0 -20   XYZ
    dof rx
    limits (-10.0 170.0)
 end
 begin
     id 9 
     name rfoot
     direction -0.111837 -0.30727 0.945028   
     length 2.15769  
     axis -90 -7.62852e-016 -20   XYZ
    dof rx rz
    limits (-45.0 90.0)
           (-20.0 70.0)
  end
  begin
     id 10 
     name rtoes
     direction -1.53539e-011 -4.21878e-011 1   
     length 1.07391   
     axis -90 -7.62852e-016 -20   XYZ
    dof rx
    limits (-90.0 20.0)
  end
  begin
     id 11 
     name lowerback
     direction 0.00552624 0.990109 -0.140195   
     length 2.12403   
     axis 0 0 0   XYZ
    dof rx ry rz
    limits (-20.0 45.0)
           (-30.0 30.0)
           (-30.0 30.0)
  end
  begin
     id 12 
     name upperback
     direction 0.00361898 0.999976 -0.00584723   
     length 2.13232   
     axis 0 0 0   XYZ
    dof rx ry rz
    limits (-20.0 45.0)
           (-30.0 30.0)
           (-30.0 30.0)
  end
  begin
     id 13 
     name thorax
     direction -0.000331275 0.998253 0.0590847   
     length 2.17688   
     axis 0 0 0   XYZ
    dof rx ry rz
    limits (-20.0 45.0)
           (-30.0 30.0)
           (-30.0 30.0)
  end
  begin
     id 14 
     name lowerneck
     direction -0.0561561 0.979832 0.19177   
     length 1.64159   
     axis 0 0 0   XYZ
    dof rx ry rz
    limits (-20.0 45.0)
           (-30.0 30.0)
           (-30.0 30.0)
  end
  begin
     id 15 
     name upperneck
     direction 0.0827153 0.979385 -0.184293   
     length 1.68939   
     axis 0 0 0   XYZ
    dof rx ry rz
    limits (-20.0 45.0)
           (-30.0 30.0)
           (-30.0 30.0)
  end
  begin
     id 16
     name head
     direction 0.0278583 0.995936 -0.0856488  
     length 1.70207  
     axis 0 0 0   XYZ
    dof rx ry rz
    limits (-20.0 45.0)
           (-30.0 30.0)
           (-30.0 30.0)
  end
  begin
     id 17 
     name lclavicle
     direction 0.950993 0.301131 -0.0702275  
     length 3.41652  
     axis 0 0 0   XYZ
    dof ry rz
    limits (-20.0 10.0)
           (0.0 20.0)
  end
  begin
     id 18 
     name lhumerus
     direction 1 -4.48981e-011 -3.9662e-029   
     length 5.32955   
     axis 180 -30 -90   XYZ
    dof rx ry rz
    limits (-60.0 90.0)
           (-90.0 90.0)
           (-90.0 90.0)
  end
  begin
     id 19
     name lradius
     direction 1 -4.48925e-011 -9.0549e-027   
     length 3.69232   
     axis 180 -30 -90   XYZ
    dof rx
    limits (-10.0 170.0)
  end
  begin
     id 20
     name lwrist
     direction 1 -4.49007e-011 -1.49005e-026   
     length 1.84616   
     axis 9.0955e-015 90 90   XYZ
    dof ry
    limits (-180.0 0.0)
 end
  begin
     id 21 
     name lhand
     direction 1 -4.49016e-011 -2.98023e-026   
     length 0.536598   
     axis 1.90115e-014 90 90   XYZ
    dof rx rz
    limits (-90.0 90.0)
           (-45.0 45.0)
  end
  begin
     id 22 
     name lfingers
     direction 1 -4.48924e-011 -5.9578e-026   
     length 0.432619   
     axis 3.80223e-014 90 90   XYZ
    dof rx
    limits (0.0 90.0)
  end
  begin
     id 23
     name lthumb
     direction 0.707107 -6.34947e-011 0.707107   
     length 0.621157   
     axis -90 45 -3.84942e-014   XYZ
    dof rx rz
    limits (-45.0 45.0)
           (-45.0 45.0)
  end
  begin
     id 24 
     name rclavicle
     direction -0.955495 0.276497 -0.102848   
     length 3.36357  
     axis 0 0 0   XYZ 
    dof ry rz
    limits (-10.0 20.0)
           (-20.0 0.0)
  end
  begin
     id 25 
     name rhumerus
     direction -1 -4.48961e-011 3.30983e-027  
     length 5.23431   
     axis 180 30 90   XYZ
    dof rx ry rz
    limits (-90.0 60.0)
           (-90.0 90.0)
           (-90.0 90.0)
  end
  begin
     id 26 
     name rradius
     direction -1 -4.48965e-011 -6.63263e-027   
     length 3.55301   
     axis 180 30 90   XYZ
    dof rx
    limits (-10.0 170.0)
  end
  begin
     id 27 
     name rwrist
     direction -1 -4.48942e-011 -1.48958e-026   
     length 1.77651   
     axis 9.0955e-015 -90 -90   XYZ
    dof ry
    limits (-180.0 0.0)
  end
  begin
     id 28
     name rhand
     direction -1 -4.48977e-011 -2.97966e-026   
     length 0.772522   
     axis 1.90115e-014 -90 -90   XYZ
    dof rx rz
    limits (-90.0 90.0)
           (-45.0 45.0)
  end
  begin
     id 29
     name rfingers
     direction -1 -4.49135e-011 -5.96389e-026   
     length 0.622827   
     axis 3.80223e-014 -90 -90   XYZ
    dof rx
    limits (0.0 90.0)
  end
  begin
     id 30
     name rthumb
     direction -0.707107 -6.34969e-011 0.707107   
     length 0.894259   
     axis -90 -45 3.84942e-014   XYZ
    dof rx rz
    limits (-45.0 45.0)
           (-45.0 45.0)
  end
:hierarchy
  begin
    root lhipjoint rhipjoint lowerback
    lhipjoint lfemur
    lfemur ltibia
    ltibia lfoot
    lfoot ltoes
    rhipjoint rfemur
    rfemur rtibia
    rtibia rfoot
    rfoot rtoes
    lowerback upperback
    upperback thorax
    thorax lowerneck lclavicle rclavicle
    lowerneck upperneck
    upperneck head
    lclavicle lhumerus
    lhumerus lradius
    lradius lwrist
    lwrist lhand lthumb
    lhand lfingers
    rclavicle rhumerus
    rhumerus rradius
    rradius rwrist
    rwrist rhand rthumb
    rhand rfingers
  end

#!OML:ASF F:\VICON\USERDATA\INSTALL\rory3\rory3.ASF
:FULLY-SPECIFIED
:DEGREES
297
root -8.2972 17.9302 -5.4815 355.194 -39.4455 -357.099
lowerback 11.2667 1.91066 -2.61217
upperback 1.32628 2.18579 -0.12456
thorax -5.02133 1.1183 1.00407
lowerneck -19.9045 -1.53218 -9.51741
upperneck 37.3235 -0.451412 3.73341
head 16.9811 -1.16348 3.22735
rclavicle -5.22431e-014 -6.36111e-015
rhumerus -33.2306 -10.4697 -77.0155
rradius 37.0926
rwrist 5.03442
rhand -14.2994 11.4666
rfingers 7.12502
rthumb 11.8405 -18.1787
lclavicle -5.22431e-014 -6.36111e-015
lhumerus -35.9578 4.25586 84.0291
lradius 32.2927
lwrist -7.50742
lhand -18.2395 25.4333
lfingers 7.12502
lthumb 8.03914 55.2604
rfemur -13.1058 -5.74496 14.3828
rtibia 68.3181
rfoot 6.34954 -3.2784
rtoes -0.381642
lfemur 1.34882 1.29207 -31.0251
ltibia 4.6403
lfoot 0.402189 -6.78074
ltoes 3.34425
298
root -8.37653 17.9176 -5.3996 355.126 -38.7041 -357.157
lowerback 11.3372 1.78972 -2.5917
upperback 1.38818 2.02557 -0.131775
thorax -4.98824 1.03782 1.00939
lowerneck -19.9699 -1.52885 -9.38348
upperneck 37.3007 -0.435649 3.61069
head 16.9831 -1.1524 3.15145
rclavicle -1.21756e-014 -3.67752e-015
rhumerus -33.4209 -10.7812 -77.1914
rradius 37.0029
rwrist 5.01164
rhand -14.6345 11.0616
rfingers 7.12502
rthumb 11.5173 -18.602
lclavicle -1.21756e-014 -3.67752e-015
lhumerus -35.5247 4.27336 83.9607
lradius 32.619
lwrist -7.61614
lhand -18.2408 25.377
lfingers 7.12502
lthumb 8.03798 55.2042
rfemur -14.0205 -5.75113 14.4306
rtibia 68.8558
rfoot 5.55776 -4.09708
rtoes 0.943318
lfemur 1.58963 1.00422 -31.0135
ltibia 5.27522
lfoot -0.104894 -6.84457
ltoes 3.87442
299
root -8.45737 17.9052 -5.31651 355.009 -37.988 -357.06
lowerback 11.3766 1.68684 -2.74278
upperback 1.37468 1.86898 -0.135883
thorax -5.02294 0.964142 1.11344
lowerneck -19.8905 -1.59563 -9.51642
upperneck 37.274 -0.543655 3.74012
head 16.9608 -1.19493 3.21122
rclavicle -1.56667e-014 5.36719e-015
rhumerus -33.7091 -11.1785 -77.2179
rradius 36.8154
rwrist 4.96911
rhand -14.8006 10.8886
rfingers 7.12502
rthumb 11.3571 -18.7839
lclavicle -1.56667e-014 5.36719e-015
lhumerus -35.2448 4.0891 84.0119
lradius 32.9474
lwrist -7.49387
lhand -18.6897 24.872
lfingers 7.12502
lthumb 7.60462 54.7152
rfemur -14.9474 -5.71218 14.3561
rtibia 69.2119
rfoot 4.69703 -4.57093
rtoes 0.642078
lfemur 1.44804 0.742675 -31.1315
ltibia 6.51537
lfoot -0.694917 -6.75525
ltoes 5.19279
300
root -8.5376 17.9093 -5.22942 354.925 -37.2442 -356.911
lowerback 11.3701 1.57963 -2.93385
upperback 1.30686 1.70201 -0.156113
thorax -5.08862 0.88728 1.22524
lowerneck -19.8764 -1.66303 -9.61488
upperneck 37.4237 -0.651968 3.84145
head 17.0495 -1.24492 3.25865
rclavicle 2.07481e-015 3.97569e-016
rhumerus -34.0797 -11.4883 -77.2676
rradius 36.5891
rwrist 4.8975
rhand -14.8396 10.9436
rfingers 7.12502
rthumb 11.3194 -18.731
lclavicle 2.07481e-015 3.97569e-016
lhumerus -35.0852 3.95152 84.0768
lradius 33.3837
lwrist -7.21831
lhand -18.5674 24.934
lfingers 7.12502
lthumb 7.72267 54.773
rfemur -15.8534 -5.69168 14.2362
rtibia 69.3173
rfoot 3.8478 -4.9205
rtoes -0.0971733
lfemur 1.28124 0.446161 -31.3025
ltibia 7.70128
lfoot -1.37186 -6.86027
ltoes 6.06367
301
root -8.61613 17.9101 -5.14595 354.978 -36.6022 -356.967
lowerback 11.3238 1.48624 -2.98776
upperback 1.31824 1.57634 -0.107007
thorax -5.04811 0.82658 1.32802
lowerneck -20.1212 -1.71211 -9.58361
upperneck 37.5853 -0.664556 3.73812
head 17.2007 -1.2654 3.21163
rclavicle 1.13432e-014 -9.54166e-015
rhumerus -34.2954 -11.6778 -77.3707
rradius 36.4052
rwrist 4.55341
rhand -14.9454 11.062
rfingers 7.12502
rthumb 11.2175 -18.6182
lclavicle 1.13432e-014 -9.54166e-015
lhumerus -34.7747 4.01119 84.1481
lradius 33.8868
lwrist -6.99044
lhand -18.0202 25.457
lfingers 7.12502
lthumb 8.25086 55.2759
rfemur -16.742 -5.432 14.343
rtibia 69.2521
rfoot 2.88959 -5.19084
rtoes 0.216365
lfemur 1.07738 0.234035 -31.2799
ltibia 8.92182
lfoot -2.4158 -7.12893
ltoes 5.68779
302
root -8.69255 17.9018 -5.06459 355.061 -35.9301 -357.101
lowerback 11.3095 1.37811 -2.95447
upperback 1.37058 1.4414 -0.0497715
thorax -4.97948 0.75865 1.39136
lowerneck -20.3378 -1.72225 -9.55095
upperneck 37.6031 -0.63959 3.69109
head 17.2628 -1.25514 3.19256
rclavicle -4.42793e-014 2.78299e-015
rhumerus -34.3167 -12.1723 -77.3793
rradius 36.0343
rwrist 4.31741
rhand -15.0751 11.0921
rfingers 7.12502
rthumb 11.0923 -18.5947
lclavicle -4.42793e-014 2.78299e-015
lhumerus -34.3673 3.99374 84.2165
lradius 34.392
lwrist -6.785
lhand -18.0242 25.5261
lfingers 7.12502
lthumb 8.24702 55.3451
rfemur -17.6073 -5.18999 14.4928
rtibia 69.0504
rfoot 1.7276 -5.41922
rtoes 1.17457
lfemur 0.891972 -0.00953778 -31.1942
ltibia 10.1668
lfoot -3.57459 -7.28436
ltoes 4.90703
303
root -8.7662 17.891 -4.98127 355.089 -35.1873 -357.032
lowerback 11.2863 1.25969 -3.03032
upperback 1.35308 1.27564 -0.0569582
thorax -4.97856 0.678823 1.45269
lowerneck -20.2748 -1.70437 -9.58052
upperneck 37.5122 -0.614444 3.72442
head 17.1952 -1.23865 3.21499
rclavicle 2.79168e-014 1.05356e-014
rhumerus -34.5465 -12.561 -77.3539
rradius 35.8027
rwrist 4.15265
rhand -15.0471 11.0341
rfingers 7.12502
rthumb 11.1193 -18.6513
lclavicle 2.79168e-014 1.05356e-014
lhumerus -34.0384 3.8675 84.2821
lradius 34.8775
lwrist -6.5207
lhand -17.7898 25.1672
lfingers 7.12502
lthumb 8.47317 54.9773
rfemur -18.5272 -5.06253 14.4199
rtibia 68.7218
rfoot 0.582044 -5.49128
rtoes 2.02176
lfemur 0.802707 -0.208546 -31.2884
ltibia 11.1034
lfoot -4.55544 -7.54485
ltoes 3.40186
